<?xml version="1.0" encoding="UTF-8"?>
<!--
揭 (U+63ED) — composed from KanjiVG components:
  扌 (strokes 1-3) from 捨 (U+6368)
  曷 (strokes 4-12) from 竭 (U+7AED)
KanjiVG is CC BY-SA 3.0, Ulrich Apel.
-->
<svg xmlns="http://www.w3.org/2000/svg" width="109" height="109" viewBox="0 0 109 109">
<g style="fill:none;stroke:#000000;stroke-width:3;stroke-linecap:round;stroke-linejoin:round;">
	<!-- 扌 from 捨 -->
	<path d="M11,38.42c2.07,0.25,3.99,0.43,6.12,0.15c4.96-0.66,12.21-1.86,18.89-2.79c1.31-0.18,2.87-0.27,3.91-0.27"/>
	<path d="M27.27,15.25c0.93,0.93,1.76,2.5,1.76,4.27c0,15.23-0.01,55.71-0.01,67.15c0,14.25-6.32,3.53-7.77,2"/>
	<path d="M10.17,68.15c1.08,0.72,2.82,0.83,3.96-0.03c5.62-4.25,8.88-6.62,20.12-14.71"/>
	<!-- 曷 from 竭 -->
	<path d="M53.99,12.64c0.19,0.52,0.2,0.89,0.3,1.55c0.87,5.43,1.8,19.14,2.34,29.27"/>
	<path d="M54.8,14.06c7.74-0.7,22.13-2.07,29.27-2.4c2.12-0.1,2.41,2.2,2.22,3.46c-0.67,4.62-2.36,18.94-3.79,26.63"/>
	<path d="M56.1,27.41c4.43-0.33,26.34-1.76,28.58-1.85"/>
	<path d="M56.61,41.36c7.47-0.53,18.07-1.62,25.57-1.86"/>
	<path d="M60.98,44.5c0.05,0.53,0.25,1.4-0.11,2.13c-2.7,5.44-8.84,13.41-19.13,20.37"/>
	<path d="M58.72,55.19c0.89,0.51,2.13,0.68,3.54,0.34c1.42-0.34,26.89-3.13,30.42-3.53c2.19-0.25,3.72,1.34,3.34,4.9c-1.3,12.3-3.87,26.18-9.52,37.67c-2.19,4.45-5.11,4.2-7.43-0.84"/>
	<path d="M70.45,59.87c0.3,0.32-0.04,1.98-0.25,2.59C68.14,68.54,66.1,73.67,58.75,81"/>
	<path d="M68.25,69.25C72.5,70.99,77.93,75.62,80,80"/>
	<path d="M52.21,63.51c0.6,0.48,0.96,2.16,1.08,3.12c0.11,0.87-0.42,9.58-0.42,18.1c0,1.96,0.49,3.21,2.13,3c3.84-0.51,16.62-1.84,23.33-2.5c1.46-0.14,2.64,0.4,3.36,0.4"/>
</g>
<g style="font-size:8;fill:#808080">
	<text transform="matrix(1 0 0 1 5.25 39.13)">1</text>
	<text transform="matrix(1 0 0 1 18.50 18.50)">2</text>
	<text transform="matrix(1 0 0 1 1.50 71.50)">3</text>
	<text transform="matrix(1 0 0 1 46.50 17.50)">4</text>
	<text transform="matrix(1 0 0 1 57.50 10.50)">5</text>
	<text transform="matrix(1 0 0 1 59.50 24.60)">6</text>
	<text transform="matrix(1 0 0 1 60.50 38.50)">7</text>
	<text transform="matrix(1 0 0 1 47.50 50.45)">8</text>
	<text transform="matrix(1 0 0 1 65.50 51.50)">9</text>
	<text transform="matrix(1 0 0 1 58.50 64.50)">10</text>
	<text transform="matrix(1 0 0 1 72.50 69.23)">11</text>
	<text transform="matrix(1 0 0 1 42.50 81.50)">12</text>
</g>
</svg>
